# Blender 4.2.1 LTS
# www.blender.org
mtllib Table.mtl
o Table
v 0.921294 1.315130 -1.862819
v -1.260121 1.477798 1.872994
v 1.268160 1.315130 -1.862819
v -1.232486 1.477798 -1.707525
v 1.233374 1.315130 1.789866
v 1.268160 1.477798 -1.862819
v -0.773940 1.315130 1.792448
v 0.870712 1.477798 -1.694770
v -0.773940 1.315130 -1.707525
v 0.860034 1.477798 1.872994
v -1.232486 1.315130 -1.707525
v -0.316944 1.477798 1.872994
v -0.327622 1.477798 -1.707525
v -0.316944 1.315130 1.872994
v 0.860034 1.315130 1.872994
v -0.803840 1.477798 1.872994
v -0.773940 1.477798 -1.707525
v 0.870712 1.315130 -1.694770
v -0.343069 1.315130 -1.788071
v -0.327622 1.477798 1.792448
v -0.343069 1.477798 -1.788071
v -0.758493 1.315130 -1.788071
v -1.260121 1.315130 1.872994
v -0.773940 1.477798 1.792448
v -0.758493 1.477798 -1.788071
v -0.803840 1.315130 1.872994
v 1.233374 1.477798 1.789866
v -0.327622 1.315130 -1.707525
v 0.870712 1.477798 1.788232
v -0.327622 1.315130 1.792448
v 0.870712 1.315130 1.788232
v 0.921294 1.477798 -1.862819
v -1.290089 1.301497 1.528786
v -1.244433 1.255841 1.528786
v -1.244433 1.523685 1.528786
v -1.290089 1.478029 1.528786
v -1.244433 1.255841 1.169999
v -1.290089 1.301497 1.169999
v -1.290089 1.478029 1.169999
v -1.244433 1.523685 1.169999
v 1.244433 1.255841 1.528786
v 1.290089 1.301497 1.528786
v 1.290089 1.478029 1.528786
v 1.244433 1.523685 1.528786
v 1.290089 1.301497 1.169999
v 1.244433 1.255841 1.169999
v 1.244433 1.523685 1.169999
v 1.290089 1.478029 1.169999
v -1.290089 1.301497 -1.528786
v -1.244433 1.255841 -1.528786
v -1.244433 1.523685 -1.528786
v -1.290089 1.478029 -1.528786
v -1.244433 1.255841 -1.169999
v -1.290089 1.301497 -1.169999
v -1.290089 1.478029 -1.169999
v -1.244433 1.523685 -1.169999
v 1.244433 1.255841 -1.528786
v 1.290089 1.301497 -1.528786
v 1.290089 1.478029 -1.528786
v 1.244433 1.523685 -1.528786
v 1.290089 1.301497 -1.169999
v 1.244433 1.255841 -1.169999
v 1.244433 1.523685 -1.169999
v 1.290089 1.478029 -1.169999
v -1.049310 -0.048680 -1.185331
v -1.033426 1.282148 -1.212842
v -1.139030 -0.048680 -1.340731
v -1.107263 1.282148 -1.340731
v -1.049310 -0.048680 -1.496132
v -1.033426 1.282148 -1.468620
v -0.869869 -0.048680 -1.496132
v -0.885753 1.282148 -1.468620
v -0.780149 -0.048680 -1.340731
v -0.811916 1.282148 -1.340731
v -0.869869 -0.048680 -1.185331
v -0.885753 1.282148 -1.212842
v -1.040535 1.000554 -1.200529
v -1.121481 1.000554 -1.340731
v -1.040535 1.000554 -1.480933
v -0.878644 1.000554 -1.480933
v -0.797698 1.000554 -1.340731
v -0.878644 1.000554 -1.200529
v -1.047815 0.306992 -1.187919
v -1.136042 0.306992 -1.340731
v -1.047815 0.306992 -1.493543
v -0.871363 0.306992 -1.493543
v -0.783137 0.306992 -1.340731
v -0.871363 0.306992 -1.187919
v -0.959589 0.068653 -1.138949
v -1.093556 0.068653 -1.198422
v -1.161371 0.068653 -1.340731
v -1.093556 0.068653 -1.483040
v -0.959589 0.068653 -1.542513
v -0.825623 0.068653 -1.483040
v -0.757808 0.068653 -1.340731
v -0.825623 0.068653 -1.198422
v -0.959589 0.212173 -1.138949
v -1.093556 0.212173 -1.198422
v -1.161371 0.212173 -1.340731
v -1.093556 0.212173 -1.483040
v -0.959589 0.212173 -1.542513
v -0.825623 0.212173 -1.483040
v -0.757808 0.212173 -1.340731
v -0.825623 0.212173 -1.198422
v 1.049310 -0.048680 -1.185331
v 1.033426 1.282148 -1.212842
v 1.139030 -0.048680 -1.340731
v 1.107263 1.282148 -1.340731
v 1.049310 -0.048680 -1.496131
v 1.033426 1.282148 -1.468620
v 0.869869 -0.048680 -1.496131
v 0.885753 1.282148 -1.468620
v 0.780149 -0.048680 -1.340731
v 0.811916 1.282148 -1.340731
v 0.869869 -0.048680 -1.185331
v 0.885753 1.282148 -1.212842
v 1.040535 1.000554 -1.200529
v 1.121481 1.000554 -1.340731
v 1.040535 1.000554 -1.480933
v 0.878644 1.000554 -1.480933
v 0.797698 1.000554 -1.340731
v 0.878644 1.000554 -1.200529
v 1.047815 0.306992 -1.187919
v 1.136042 0.306992 -1.340731
v 1.047815 0.306992 -1.493543
v 0.871363 0.306992 -1.493543
v 0.783137 0.306992 -1.340731
v 0.871363 0.306992 -1.187919
v 0.959589 0.068653 -1.138949
v 1.093556 0.068653 -1.198422
v 1.161371 0.068653 -1.340731
v 1.093556 0.068653 -1.483040
v 0.959589 0.068653 -1.542513
v 0.825623 0.068653 -1.483040
v 0.757808 0.068653 -1.340731
v 0.825623 0.068653 -1.198422
v 0.959589 0.212173 -1.138949
v 1.093556 0.212173 -1.198422
v 1.161371 0.212173 -1.340731
v 1.093556 0.212173 -1.483040
v 0.959589 0.212173 -1.542513
v 0.825623 0.212173 -1.483040
v 0.757808 0.212173 -1.340731
v 0.825623 0.212173 -1.198422
v -1.049310 -0.048680 1.185331
v -1.033426 1.282148 1.212842
v -1.139030 -0.048680 1.340731
v -1.107263 1.282148 1.340731
v -1.049310 -0.048680 1.496131
v -1.033426 1.282148 1.468620
v -0.869869 -0.048680 1.496131
v -0.885753 1.282148 1.468620
v -0.780149 -0.048680 1.340731
v -0.811916 1.282148 1.340731
v -0.869869 -0.048680 1.185331
v -0.885753 1.282148 1.212842
v -1.040535 1.000554 1.200529
v -1.121481 1.000554 1.340731
v -1.040535 1.000554 1.480933
v -0.878644 1.000554 1.480933
v -0.797698 1.000554 1.340731
v -0.878644 1.000554 1.200529
v -1.047815 0.306992 1.187919
v -1.136042 0.306992 1.340731
v -1.047815 0.306992 1.493543
v -0.871363 0.306992 1.493543
v -0.783137 0.306992 1.340731
v -0.871363 0.306992 1.187919
v -0.959589 0.068653 1.138949
v -1.093556 0.068653 1.198422
v -1.161371 0.068653 1.340731
v -1.093556 0.068653 1.483040
v -0.959589 0.068653 1.542513
v -0.825623 0.068653 1.483040
v -0.757808 0.068653 1.340731
v -0.825623 0.068653 1.198422
v -0.959589 0.212173 1.138949
v -1.093556 0.212173 1.198422
v -1.161371 0.212173 1.340731
v -1.093556 0.212173 1.483040
v -0.959589 0.212173 1.542513
v -0.825623 0.212173 1.483040
v -0.757808 0.212173 1.340731
v -0.825623 0.212173 1.198422
v 1.049310 -0.048680 1.185331
v 1.033426 1.282148 1.212842
v 1.139030 -0.048680 1.340731
v 1.107263 1.282148 1.340731
v 1.049310 -0.048680 1.496132
v 1.033426 1.282148 1.468620
v 0.869869 -0.048680 1.496132
v 0.885753 1.282148 1.468620
v 0.780149 -0.048680 1.340731
v 0.811916 1.282148 1.340731
v 0.869869 -0.048680 1.185331
v 0.885753 1.282148 1.212842
v 1.040535 1.000554 1.200529
v 1.121481 1.000554 1.340731
v 1.040535 1.000554 1.480933
v 0.878644 1.000554 1.480933
v 0.797698 1.000554 1.340731
v 0.878644 1.000554 1.200529
v 1.047815 0.306992 1.187919
v 1.136042 0.306992 1.340731
v 1.047815 0.306992 1.493543
v 0.871363 0.306992 1.493543
v 0.783137 0.306992 1.340731
v 0.871363 0.306992 1.187919
v 0.959589 0.068653 1.138949
v 1.093556 0.068653 1.198422
v 1.161371 0.068653 1.340731
v 1.093556 0.068653 1.483040
v 0.959589 0.068653 1.542513
v 0.825623 0.068653 1.483040
v 0.757808 0.068653 1.340731
v 0.825623 0.068653 1.198422
v 0.959589 0.212173 1.138949
v 1.093556 0.212173 1.198422
v 1.161371 0.212173 1.340731
v 1.093556 0.212173 1.483040
v 0.959589 0.212173 1.542513
v 0.825623 0.212173 1.483040
v 0.757808 0.212173 1.340731
v 0.825623 0.212173 1.198422
vn 0.6614 -0.0000 0.7500
vn 0.9922 -0.0000 0.1250
vn 0.7105 -0.0000 -0.7037
vn -0.5966 -0.0000 -0.8026
vn 0.5710 -0.0000 0.8210
vn 0.9375 -0.0000 0.3480
vn -0.0000 -0.0000 1.0000
vn -0.6590 -0.0000 0.7521
vn 0.0106 -0.0000 -0.9999
vn 0.7021 -0.0000 0.7120
vn -0.6370 -0.0000 -0.7708
vn -0.9821 -0.0000 -0.1883
vn -0.0000 1.0000 -0.0000
vn 0.6370 -0.0000 -0.7708
vn -0.0000 -1.0000 -0.0000
vn -0.0000 -0.0000 -1.0000
vn -0.7044 -0.0000 -0.7098
vn -0.9913 -0.0000 0.1314
vn -0.0045 -0.0000 1.0000
vn -0.9576 -0.0000 -0.2882
vn -0.7098 -0.0000 0.7044
vn 0.9821 -0.0000 -0.1883
vn 0.9239 -0.3827 -0.0000
vn 0.9239 0.3827 -0.0000
vn 0.3827 0.9239 -0.0000
vn -0.3827 0.9239 -0.0000
vn -0.9239 -0.3827 -0.0000
vn -0.9239 0.3827 -0.0000
vn -0.3827 -0.9239 -0.0000
vn 0.3827 -0.9239 -0.0000
vn -0.4999 0.0147 -0.8659
vn 0.4999 0.0147 -0.8659
vn 0.5000 0.0084 -0.8660
vn -0.5000 0.0084 -0.8660
vn -0.9987 0.0504 -0.0000
vn -0.4994 0.0504 -0.8649
vn -0.4997 0.0355 -0.8655
vn -0.9994 0.0355 -0.0000
vn 0.4994 0.0504 -0.8649
vn 0.9987 0.0504 -0.0000
vn 0.9994 0.0355 -0.0000
vn 0.4997 0.0355 -0.8655
vn 0.4994 0.0504 0.8649
vn 0.4997 0.0355 0.8655
vn -0.4999 0.0147 0.8659
vn -0.4997 0.0355 0.8655
vn -0.9999 0.0147 -0.0000
vn 0.9999 0.0147 -0.0000
vn 0.4999 0.0147 0.8659
vn 0.5000 0.0084 0.8660
vn -0.5000 0.0084 0.8660
vn -1.0000 0.0084 -0.0000
vn 1.0000 0.0084 -0.0000
vn -0.4994 0.0504 0.8649
vn 0.6975 -0.0000 0.7166
vn -1.0000 -0.0000 -0.0000
vn -0.6975 -0.0000 -0.7166
vn 1.0000 -0.0000 -0.0000
vn -0.6975 -0.0000 0.7166
vn 0.6975 -0.0000 -0.7166
vt 0.634077 0.042553
vt 0.634077 0.000000
vt 0.636614 0.000000
vt 0.636614 0.042553
vt 0.742579 1.000000
vt 0.742579 0.957007
vt 0.659340 0.957007
vt 0.659340 1.000000
vt 0.238878 0.042553
vt 0.238878 0.000000
vt 0.245979 0.000000
vt 0.245979 0.042553
vt 0.351988 0.000000
vt 0.351988 0.042553
vt 0.354524 0.042553
vt 0.354524 0.000000
vt 0.647202 1.000000
vt 0.647202 0.957007
vt 0.359633 0.957007
vt 0.359633 1.000000
vt 0.054436 0.923441
vt 0.093439 0.923441
vt 0.093439 0.047587
vt 0.054436 0.047587
vt 0.256235 1.000000
vt 0.256235 0.957007
vt 0.252528 0.957007
vt 0.252528 1.000000
vt 0.739321 0.954855
vt 0.656152 0.954855
vt 0.644024 0.914561
vt 0.730980 0.079040
vt 0.355926 1.000000
vt 0.355926 0.957007
vt 0.356696 0.078421
vt 0.249681 0.917619
vt 0.356696 0.917619
vt 0.644024 0.079432
vt 0.253384 0.936932
vt 0.352992 0.936932
vt 0.641463 0.059108
vt 0.359256 0.059108
vt 0.644024 0.914561
vt 0.730980 0.079040
vt 0.242511 0.059108
vt 0.249680 0.078421
vt 0.139734 0.917619
vt 0.133108 0.059108
vt 0.356695 0.078421
vt 0.249680 0.917619
vt 0.139734 0.917619
vt 0.249681 0.078421
vt 0.242512 0.059108
vt 0.133108 0.059108
vt 0.739321 0.954855
vt 0.656152 0.954855
vt 0.356695 0.917619
vt 0.644024 0.079432
vt 0.359256 0.059108
vt 0.253384 0.936932
vt 0.352992 0.936932
vt 0.142489 0.957007
vt 0.142489 1.000000
vt 0.722752 0.000000
vt 0.722752 0.042553
vt 0.130503 0.042553
vt 0.130503 0.000000
vt 0.054436 0.903383
vt 0.093439 0.903383
vt 0.093439 0.044847
vt 0.054436 0.044847
vt 1.236591 0.036959
vt 1.138141 0.036959
vt 1.154923 0.020178
vt 1.219810 0.020178
vt 1.135038 0.000337
vt 1.135038 0.059714
vt 1.014359 0.059714
vt 1.014359 0.000337
vt 1.236591 0.951776
vt 1.138141 0.951776
vt 1.135038 0.081431
vt 1.135038 0.918569
vt 1.014359 0.918569
vt 1.014359 0.081431
vt 1.014359 0.999663
vt 1.014359 0.940286
vt 1.135038 0.940286
vt 1.135038 0.999663
vt 1.138141 0.036959
vt 1.135061 0.081469
vt 1.014382 0.081469
vt 1.014382 0.059753
vt 1.135061 0.059753
vt 1.014382 0.918566
vt 1.135061 0.918566
vt 1.135061 0.940283
vt 1.014382 0.940283
vt 1.138141 0.951776
vt 1.154923 0.968557
vt 1.219810 0.968557
vt 0.833395 0.467687
vt 0.794836 0.466948
vt 0.798731 0.380986
vt 0.835030 0.382057
vt 0.871378 0.698773
vt 0.834801 0.698960
vt 0.833244 0.631133
vt 0.871388 0.630712
vt 0.798357 0.700319
vt 0.761907 0.702778
vt 0.755894 0.633377
vt 0.794849 0.631908
vt 0.981203 0.703033
vt 0.944556 0.700499
vt 0.948094 0.631818
vt 0.987364 0.633296
vt 0.909879 0.467677
vt 0.909589 0.631093
vt 0.871644 0.467914
vt 0.987364 0.465488
vt 0.948432 0.466778
vt 0.944233 0.380599
vt 0.907832 0.381736
vt 0.755585 0.465595
vt 0.871403 0.382269
vt 0.762660 0.378771
vt 0.980504 0.378315
vt 0.907982 0.699051
vt 0.911373 0.802776
vt 0.893649 0.833474
vt 0.858202 0.833474
vt 0.840478 0.802776
vt 0.893649 0.772077
vt 0.858202 0.772077
vt 1.493528 0.003236
vt 1.415245 0.094629
vt 1.415245 0.224052
vt 1.515767 0.305572
vt 1.636060 0.302335
vt 1.714343 0.210943
vt 1.714344 0.081520
vt 1.613822 0.000000
vt 1.262330 0.370577
vt 1.262330 0.250241
vt 1.390757 0.250241
vt 1.390757 0.370577
vt 1.262330 0.999519
vt 1.262330 0.870096
vt 1.390757 0.870096
vt 1.390757 0.999518
vt 1.262330 0.500000
vt 1.390757 0.500000
vt 1.262330 0.129904
vt 1.390757 0.129904
vt 1.262330 0.000481
vt 1.390757 0.000481
vt 1.262330 0.749759
vt 1.262330 0.629423
vt 1.390757 0.629423
vt 1.390757 0.749759
s 1
usemtl TT_checker_512x512_UV_GRID
f 10/1/1 15/2/1 31/3/2 29/4/2
f 6/5/3 3/6/3 1/7/4 32/8/4
f 16/9/5 26/10/5 7/11/6 24/12/6
f 24/12/7 7/11/7 30/13/7 20/14/7
f 12/15/8 14/16/8 15/2/1 10/1/1
f 8/17/9 18/18/9 28/19/9 13/20/9
f 27/21/10 5/22/10 3/23/3 6/24/3
f 25/25/11 22/26/11 9/27/12 17/28/12
f 6/29/13 32/30/13 8/31/13 27/32/13
f 21/33/14 19/34/14 22/26/11 25/25/11
f 30/35/15 9/36/15 28/37/15 31/38/15
f 22/39/15 19/40/15 28/37/15 9/36/15
f 30/35/15 31/38/15 15/41/15 14/42/15
f 28/37/15 18/43/15 5/44/15 31/38/15
f 16/45/13 24/46/13 4/47/13 2/48/13
f 4/47/13 24/46/13 20/49/13 17/50/13
f 11/51/15 9/36/15 30/35/15 7/52/15
f 26/53/15 23/54/15 11/51/15 7/52/15
f 3/55/15 5/44/15 18/43/15 1/56/15
f 13/57/13 29/58/13 27/32/13 8/31/13
f 20/49/13 12/59/13 10/41/13 29/58/13
f 25/60/13 17/50/13 13/57/13 21/61/13
f 20/49/13 29/58/13 13/57/13 17/50/13
f 17/28/16 9/27/16 11/62/17 4/63/17
f 20/14/18 30/13/18 14/16/8 12/15/8
f 29/4/19 31/3/19 5/64/10 27/65/10
f 32/8/4 1/7/4 18/18/20 8/17/20
f 2/66/21 23/67/21 26/10/5 16/9/5
f 13/20/22 28/19/22 19/34/14 21/33/14
f 4/68/17 11/69/17 23/70/21 2/71/21
f 44/72/7 41/73/7 42/74/7 43/75/7
f 45/76/23 48/77/24 43/78/24 42/79/23
f 44/72/7 35/80/7 34/81/7 41/73/7
f 47/82/25 40/83/26 35/84/26 44/85/25
f 33/86/27 36/87/28 39/88/28 38/89/27
f 46/90/16 47/72/16 48/75/16 45/74/16
f 37/91/29 34/92/29 33/93/27 38/94/27
f 35/84/26 40/83/26 39/88/28 36/87/28
f 41/95/30 46/96/30 45/97/23 42/98/23
f 47/82/25 44/85/25 43/78/24 48/77/24
f 37/91/29 46/96/30 41/95/30 34/92/29
f 47/72/16 46/90/16 37/99/16 40/80/16
f 37/99/16 38/100/16 39/101/16 40/80/16
f 35/80/7 36/101/7 33/100/7 34/81/7
f 60/72/16 59/75/16 58/74/16 57/73/16
f 61/76/23 58/79/23 59/78/24 64/77/24
f 60/72/16 57/73/16 50/81/16 51/80/16
f 63/82/25 60/85/25 51/84/26 56/83/26
f 49/86/27 54/89/27 55/88/28 52/87/28
f 62/90/7 61/74/7 64/75/7 63/72/7
f 53/91/29 54/94/27 49/93/27 50/92/29
f 51/84/26 52/87/28 55/88/28 56/83/26
f 57/95/30 58/98/23 61/97/23 62/96/30
f 63/82/25 64/77/24 59/78/24 60/85/25
f 53/91/29 50/92/29 57/95/30 62/96/30
f 63/72/7 56/80/7 53/99/7 62/90/7
f 53/99/7 56/80/7 55/101/7 54/100/7
f 51/80/16 50/81/16 49/100/16 52/101/16
f 85/102/31 86/103/32 71/104/33 69/105/34
f 68/106/35 70/107/36 79/108/37 78/109/38
f 72/110/39 74/111/40 81/112/41 80/113/42
f 85/102/31 79/108/37 80/113/42 86/103/32
f 74/114/40 76/115/43 82/116/44 81/117/41
f 83/118/45 77/119/46 78/109/38 84/120/47
f 87/121/48 81/117/41 82/116/44 88/122/49
f 75/123/50 88/122/49 83/118/45 65/124/51
f 86/103/32 80/113/42 81/112/41 87/125/48
f 84/120/47 78/109/38 79/108/37 85/102/31
f 70/107/36 72/110/39 80/113/42 79/108/37
f 84/120/47 85/102/31 69/105/34 67/126/52
f 86/103/32 87/125/48 73/127/53 71/104/33
f 88/122/49 82/116/44 77/119/46 83/118/45
f 87/121/48 88/122/49 75/123/50 73/128/53
f 66/129/54 68/106/35 78/109/38 77/119/46
f 83/118/45 84/120/47 67/126/52 65/124/51
f 82/116/44 76/115/43 66/129/54 77/119/46
f 67/130/15 69/131/15 71/132/15 73/133/15
f 65/134/15 67/130/15 73/133/15 75/135/15
f 89/136/13 96/137/13 95/138/13 94/139/13 93/140/13 92/141/13 91/142/13 90/143/13
f 97/136/15 98/143/15 99/142/15 100/141/15 101/140/15 102/139/15 103/138/15 104/137/15
f 92/144/55 93/145/7 101/146/7 100/147/55
f 95/148/56 96/149/57 104/150/57 103/151/56
f 91/152/58 92/144/55 100/147/55 99/153/58
f 93/145/7 94/154/59 102/155/59 101/146/7
f 94/154/59 95/156/56 103/157/56 102/155/59
f 89/158/16 90/159/60 98/160/60 97/161/16
f 96/149/57 89/158/16 97/161/16 104/150/57
f 90/159/60 91/152/58 99/153/58 98/160/60
f 125/102/32 109/105/33 111/104/34 126/103/31
f 108/106/40 118/109/41 119/108/42 110/107/39
f 112/110/36 120/113/37 121/112/38 114/111/35
f 125/102/32 126/103/31 120/113/37 119/108/42
f 114/114/35 121/117/38 122/116/46 116/115/54
f 123/118/49 124/120/48 118/109/41 117/119/44
f 127/121/47 128/122/45 122/116/46 121/117/38
f 115/123/51 105/124/50 123/118/49 128/122/45
f 126/103/31 127/125/47 121/112/38 120/113/37
f 124/120/48 125/102/32 119/108/42 118/109/41
f 110/107/39 119/108/42 120/113/37 112/110/36
f 124/120/48 107/126/53 109/105/33 125/102/32
f 126/103/31 111/104/34 113/127/52 127/125/47
f 128/122/45 123/118/49 117/119/44 122/116/46
f 127/121/47 113/128/52 115/123/51 128/122/45
f 106/129/43 117/119/44 118/109/41 108/106/40
f 123/118/49 105/124/50 107/126/53 124/120/48
f 122/116/46 117/119/44 106/129/43 116/115/54
f 107/130/15 113/133/15 111/132/15 109/131/15
f 105/134/15 115/135/15 113/133/15 107/130/15
f 129/136/13 130/143/13 131/142/13 132/141/13 133/140/13 134/139/13 135/138/13 136/137/13
f 137/136/15 144/137/15 143/138/15 142/139/15 141/140/15 140/141/15 139/142/15 138/143/15
f 132/144/59 140/147/59 141/146/7 133/145/7
f 135/148/58 143/151/58 144/150/60 136/149/60
f 131/152/56 139/153/56 140/147/59 132/144/59
f 133/145/7 141/146/7 142/155/55 134/154/55
f 134/154/55 142/155/55 143/157/58 135/156/58
f 129/158/16 137/161/16 138/160/57 130/159/57
f 136/149/60 144/150/60 137/161/16 129/158/16
f 130/159/57 138/160/57 139/153/56 131/152/56
f 165/102/45 149/105/51 151/104/50 166/103/49
f 148/106/35 158/109/38 159/108/46 150/107/54
f 152/110/43 160/113/44 161/112/41 154/111/40
f 165/102/45 166/103/49 160/113/44 159/108/46
f 154/114/40 161/117/41 162/116/42 156/115/39
f 163/118/31 164/120/47 158/109/38 157/119/37
f 167/121/48 168/122/32 162/116/42 161/117/41
f 155/123/33 145/124/34 163/118/31 168/122/32
f 166/103/49 167/125/48 161/112/41 160/113/44
f 164/120/47 165/102/45 159/108/46 158/109/38
f 150/107/54 159/108/46 160/113/44 152/110/43
f 164/120/47 147/126/52 149/105/51 165/102/45
f 166/103/49 151/104/50 153/127/53 167/125/48
f 168/122/32 163/118/31 157/119/37 162/116/42
f 167/121/48 153/128/53 155/123/33 168/122/32
f 146/129/36 157/119/37 158/109/38 148/106/35
f 163/118/31 145/124/34 147/126/52 164/120/47
f 162/116/42 157/119/37 146/129/36 156/115/39
f 147/130/15 153/133/15 151/132/15 149/131/15
f 145/134/15 155/135/15 153/133/15 147/130/15
f 169/136/13 170/143/13 171/142/13 172/141/13 173/140/13 174/139/13 175/138/13 176/137/13
f 177/136/15 184/137/15 183/138/15 182/139/15 181/140/15 180/141/15 179/142/15 178/143/15
f 172/144/60 180/147/60 181/146/16 173/145/16
f 175/148/56 183/151/56 184/150/59 176/149/59
f 171/152/58 179/153/58 180/147/60 172/144/60
f 173/145/16 181/146/16 182/155/57 174/154/57
f 174/154/57 182/155/57 183/157/56 175/156/56
f 169/158/7 177/161/7 178/160/55 170/159/55
f 176/149/59 184/150/59 177/161/7 169/158/7
f 170/159/55 178/160/55 179/153/58 171/152/58
f 205/102/49 206/103/45 191/104/51 189/105/50
f 188/106/40 190/107/43 199/108/44 198/109/41
f 192/110/54 194/111/35 201/112/38 200/113/46
f 205/102/49 199/108/44 200/113/46 206/103/45
f 194/114/35 196/115/36 202/116/37 201/117/38
f 203/118/32 197/119/42 198/109/41 204/120/48
f 207/121/47 201/117/38 202/116/37 208/122/31
f 195/123/34 208/122/31 203/118/32 185/124/33
f 206/103/45 200/113/46 201/112/38 207/125/47
f 204/120/48 198/109/41 199/108/44 205/102/49
f 190/107/43 192/110/54 200/113/46 199/108/44
f 204/120/48 205/102/49 189/105/50 187/126/53
f 206/103/45 207/125/47 193/127/52 191/104/51
f 208/122/31 202/116/37 197/119/42 203/118/32
f 207/121/47 208/122/31 195/123/34 193/128/52
f 186/129/39 188/106/40 198/109/41 197/119/42
f 203/118/32 204/120/48 187/126/53 185/124/33
f 202/116/37 196/115/36 186/129/39 197/119/42
f 187/130/15 189/131/15 191/132/15 193/133/15
f 185/134/15 187/130/15 193/133/15 195/135/15
f 209/136/13 216/137/13 215/138/13 214/139/13 213/140/13 212/141/13 211/142/13 210/143/13
f 217/136/15 218/143/15 219/142/15 220/141/15 221/140/15 222/139/15 223/138/15 224/137/15
f 212/144/57 213/145/16 221/146/16 220/147/57
f 215/148/58 216/149/55 224/150/55 223/151/58
f 211/152/56 212/144/57 220/147/57 219/153/56
f 213/145/16 214/154/60 222/155/60 221/146/16
f 214/154/60 215/156/58 223/157/58 222/155/60
f 209/158/7 210/159/59 218/160/59 217/161/7
f 216/149/55 209/158/7 217/161/7 224/150/55
f 210/159/59 211/152/56 219/153/56 218/160/59
